# 3ds Max Wavefront OBJ Exporter v0.97b - (c)2007 guruware
# File Created: 13.02.2012 16:18:32

#
# object cube
#

v  0.5000 0.5000 0.5000 
v  -0.5000 0.5000 0.5000
v  -0.5000 -0.5000 0.5000
v  0.5000 -0.5000 0.5000
v  0.5000 0.5000 -0.5000
v  0.5000 -0.5000 -0.5000
v  -0.5000 0.5000 -0.5000
v  -0.5000 -0.5000 -0.5000
# 8 vertices

vn 0.5774 0.5774 0.5774
vn -0.5774 0.5774 0.5774
vn -0.5774 -0.5774 0.5774
vn 0.5774 -0.5774 0.5774
vn 0.5774 0.5774 -0.5774
vn 0.5774 -0.5774 -0.5774
vn -0.5774 0.5774 -0.5774
vn -0.5774 -0.5774 -0.5774
# 8 vertex normals

g cube
f 1//1 2//2 3//3 
f 3//3 4//4 1//1 
f 5//5 1//1 4//4 
f 4//4 6//6 5//5 
f 7//7 5//5 6//6 
f 6//6 8//8 7//7 
f 2//2 7//7 8//8 
f 8//8 3//3 2//2 
f 8//8 6//6 4//4 
f 4//4 3//3 8//8 
f 5//5 7//7 2//2 
f 2//2 1//1 5//5 
# 12 faces

